<svg width="120" height="120" viewBox="0 0 120 120" fill="none" xmlns="http://www.w3.org/2000/svg">
  <!-- Outer circle background -->
  <circle cx="60" cy="60" r="60" fill="#FFFFFF"/>
  
  <!-- Blue shield background -->
  <path d="M60 18C43.5 28.5 28.5 33.75 15 36V65.25C15 85.5 34.5 99.75 60 105C85.5 99.75 105 85.5 105 65.25V36C91.5 33.75 76.5 28.5 60 18Z" fill="#0056B3"/>
  
  <!-- White inner shield -->
  <path d="M60 28.5C47.25 36.75 36 40.5 25.5 42.375V64.875C25.5 80.25 40.5 91.125 60 95.25C79.5 91.125 94.5 80.25 94.5 64.875V42.375C84 40.5 72.75 36.75 60 28.5Z" fill="#FFFFFF"/>
  
  <!-- Orange syringe icon -->
  <path d="M71.25 43.125L76.875 48.75L50.625 75L45 69.375L71.25 43.125Z" fill="#FF7A00"/>
  <path d="M42.188 72.188L47.813 77.813L39.375 80.625L42.188 72.188Z" fill="#FF7A00"/>
  <path d="M76.875 37.5L82.5 43.125L76.875 48.75L71.25 43.125L76.875 37.5Z" fill="#FF7A00"/>
  <path d="M60 52.5L67.5 60L65.625 61.875L58.125 54.375L60 52.5Z" fill="#0056B3"/>
  <path d="M56.25 56.25L63.75 63.75L61.875 65.625L54.375 58.125L56.25 56.25Z" fill="#0056B3"/>
  <path d="M52.5 60L60 67.5L58.125 69.375L50.625 61.875L52.5 60Z" fill="#0056B3"/>
</svg> 