<svg width="200" height="200" viewBox="0 0 200 200" xmlns="http://www.w3.org/2000/svg">
  <defs>
    <pattern id="vaccine-pattern" x="0" y="0" width="50" height="50" patternUnits="userSpaceOnUse">
      <!-- Syringe Icon -->
      <path d="M15,25 L25,15 L28,18 L18,28 Z" fill="#FFFFFF" opacity="0.6"/>
      <path d="M25,15 L32,8 L35,11 L28,18 Z" fill="#FFFFFF" opacity="0.6"/>
      <path d="M32,8 L34,6 L37,9 L35,11 Z" fill="#FFFFFF" opacity="0.6"/>
      <path d="M18,28 L12,34 L15,37 L21,31 Z" fill="#FFFFFF" opacity="0.6"/>
      
      <!-- Shield Icon -->
      <path d="M42,25 C42,35 37,40 32,42 C27,40 22,35 22,25 L22,15 C25,12 32,12 32,12 C32,12 39,12 42,15 L42,25 Z" fill="#FFFFFF" opacity="0.4"/>
      
      <!-- Pill Icon -->
      <circle cx="10" cy="40" r="5" fill="#FFFFFF" opacity="0.3"/>
      
      <!-- Virus Icon -->
      <circle cx="40" cy="10" r="3" fill="#FFFFFF" opacity="0.5"/>
      <path d="M40,7 L40,4" stroke="#FFFFFF" stroke-width="1" opacity="0.5"/>
      <path d="M40,16 L40,13" stroke="#FFFFFF" stroke-width="1" opacity="0.5"/>
      <path d="M43,10 L46,10" stroke="#FFFFFF" stroke-width="1" opacity="0.5"/>
      <path d="M34,10 L37,10" stroke="#FFFFFF" stroke-width="1" opacity="0.5"/>
      <path d="M42,8 L44,6" stroke="#FFFFFF" stroke-width="1" opacity="0.5"/>
      <path d="M36,14 L38,12" stroke="#FFFFFF" stroke-width="1" opacity="0.5"/>
      <path d="M42,12 L44,14" stroke="#FFFFFF" stroke-width="1" opacity="0.5"/>
      <path d="M36,6 L38,8" stroke="#FFFFFF" stroke-width="1" opacity="0.5"/>
    </pattern>
  </defs>
  
  <rect x="0" y="0" width="200" height="200" fill="url(#vaccine-pattern)"/>
</svg> 